<svg width="259" height="72" viewBox="0 0 259 72" fill="none" xmlns="http://www.w3.org/2000/svg">
<path fill-rule="evenodd" clip-rule="evenodd" d="M41.6525 44.7754C45.6656 41.4155 46.1929 35.4412 42.8302 31.4314L42.4041 30.9233L49.2281 25.2101L49.6541 25.7182C56.1749 33.4936 55.1525 45.0785 47.3706 51.5937L41.6525 44.7754Z" fill="url(#paint0_linear_17052_31829)"/>
<path fill-rule="evenodd" clip-rule="evenodd" d="M29.3857 41.8177L29.8117 42.3258L22.9878 48.039L22.5617 47.531C16.041 39.7555 17.0634 28.1706 24.8452 21.6554L30.5633 28.4737C26.5502 31.8336 26.0229 37.8079 29.3857 41.8177Z" fill="url(#paint1_linear_17052_31829)"/>
<path fill-rule="evenodd" clip-rule="evenodd" d="M50.5312 54.8361L39.24 41.3722L33.0837 57.7688L50.5312 54.8361ZM21.7187 18.4221L33.01 31.886L39.1663 15.4894L21.7187 18.4221Z" fill="#7F38E9"/>
<path d="M73.5565 40.9085H79.4965C79.6139 41.9058 80.0685 42.8152 80.8605 43.6365C81.6819 44.4285 82.7525 45.0592 84.0725 45.5285C85.3925 45.9685 86.8739 46.1885 88.5165 46.1885C90.0125 46.1885 91.2445 46.0272 92.2125 45.7045C93.1805 45.3818 93.8992 44.9272 94.3685 44.3405C94.8379 43.7538 95.0725 43.0498 95.0725 42.2285C95.0725 41.4365 94.7792 40.8352 94.1925 40.4245C93.6059 39.9845 92.6819 39.6325 91.4205 39.3685C90.1592 39.0752 88.5019 38.7818 86.4485 38.4885C84.8352 38.2538 83.3099 37.9312 81.8725 37.5205C80.4352 37.0805 79.1592 36.5232 78.0445 35.8485C76.9592 35.1738 76.0939 34.3525 75.4485 33.3845C74.8325 32.3872 74.5245 31.2138 74.5245 29.8645C74.5245 28.1925 74.9939 26.7258 75.9325 25.4645C76.9005 24.2032 78.3232 23.2205 80.2005 22.5165C82.0779 21.8125 84.3805 21.4605 87.1085 21.4605C91.2152 21.4605 94.3685 22.3405 96.5685 24.1005C98.7979 25.8312 99.8832 28.2218 99.8245 31.2725H94.1045C93.9872 29.5418 93.2539 28.2952 91.9045 27.5325C90.5845 26.7698 88.9125 26.3885 86.8885 26.3885C85.0112 26.3885 83.4565 26.6672 82.2245 27.2245C81.0219 27.7818 80.4205 28.7352 80.4205 30.0845C80.4205 30.6125 80.5672 31.0818 80.8605 31.4925C81.1539 31.8738 81.6525 32.2112 82.3565 32.5045C83.0605 32.7978 84.0139 33.0765 85.2165 33.3405C86.4192 33.6045 87.9152 33.8685 89.7045 34.1325C91.3765 34.3672 92.8872 34.6898 94.2365 35.1005C95.6152 35.4818 96.7885 35.9952 97.7565 36.6405C98.7539 37.2565 99.5165 38.0485 100.045 39.0165C100.573 39.9845 100.837 41.1725 100.837 42.5805C100.837 44.3112 100.382 45.8218 99.4725 47.1125C98.5925 48.3738 97.2139 49.3565 95.3365 50.0605C93.4885 50.7645 91.0832 51.1165 88.1205 51.1165C86.0085 51.1165 84.1459 50.8965 82.5325 50.4565C80.9192 49.9872 79.5259 49.3712 78.3525 48.6085C77.1792 47.8458 76.2259 47.0098 75.4925 46.1005C74.7592 45.1912 74.2312 44.2818 73.9085 43.3725C73.6152 42.4632 73.4979 41.6418 73.5565 40.9085ZM110.717 44.2965V39.4125H129.549V44.2965H110.717ZM103.633 50.5005L117.009 22.0325H123.345L136.853 50.5005H130.473L118.769 24.8485H121.585L109.969 50.5005H103.633ZM141.651 50.5005V22.0325H160.967C163.167 22.0325 165.074 22.3405 166.687 22.9565C168.33 23.5432 169.606 24.4818 170.515 25.7725C171.425 27.0338 171.879 28.6618 171.879 30.6565C171.879 32.0058 171.645 33.1498 171.175 34.0885C170.706 35.0272 170.046 35.7898 169.195 36.3765C168.374 36.9632 167.421 37.4178 166.335 37.7405C165.25 38.0338 164.091 38.2245 162.859 38.3125L162.243 37.9605C164.297 37.9898 165.983 38.1658 167.303 38.4885C168.623 38.7818 169.606 39.3392 170.251 40.1605C170.926 40.9525 171.263 42.1405 171.263 43.7245V50.5005H165.411V44.1205C165.411 43.0352 165.221 42.1992 164.839 41.6125C164.458 40.9965 163.769 40.5712 162.771 40.3365C161.803 40.1018 160.395 39.9845 158.547 39.9845H147.503V50.5005H141.651ZM147.503 35.4085H160.967C162.61 35.4085 163.857 35.0125 164.707 34.2205C165.587 33.4285 166.027 32.3578 166.027 31.0085C166.027 29.7178 165.587 28.7352 164.707 28.0605C163.857 27.3858 162.61 27.0485 160.967 27.0485H147.503V35.4085ZM183.107 44.2965V39.4125H201.939V44.2965H183.107ZM176.023 50.5005L189.399 22.0325H195.735L209.243 50.5005H202.863L191.159 24.8485H193.975L182.359 50.5005H176.023ZM219.894 22.0325V45.6165H238.814V50.5005H214.042V22.0325H219.894Z" fill="#212121"/>
<defs>
<linearGradient id="paint0_linear_17052_31829" x1="44.811" y1="47.3194" x2="56.0951" y2="37.3095" gradientUnits="userSpaceOnUse">
<stop stop-color="#7357E9"/>
<stop offset="1" stop-color="#5735E4"/>
</linearGradient>
<linearGradient id="paint1_linear_17052_31829" x1="27.4048" y1="25.9297" x2="16.1207" y2="35.9396" gradientUnits="userSpaceOnUse">
<stop stop-color="#7357E9"/>
<stop offset="1" stop-color="#5735E4"/>
</linearGradient>
</defs>
</svg>
